<svg xmlns="http://www.w3.org/2000/svg" viewBox="0 0 1200 750" width="1200" height="750">
  <defs>
    <linearGradient id="bg" x1="0" y1="0" x2="0" y2="1">
      <stop offset="0%" stop-color="#0a0e1a"/>
      <stop offset="100%" stop-color="#111827"/>
    </linearGradient>
    <linearGradient id="chartbg" x1="0" y1="0" x2="0" y2="1">
      <stop offset="0%" stop-color="#f8fafc"/>
      <stop offset="100%" stop-color="#f1f5f9"/>
    </linearGradient>
    <filter id="shadow">
      <feDropShadow dx="0" dy="4" stdDeviation="10" flood-color="#000" flood-opacity="0.5"/>
    </filter>
  </defs>

  <rect width="1200" height="750" fill="url(#bg)"/>

  <!-- Left panel: Neural network -->
  <rect x="40" y="60" width="440" height="630" rx="12" fill="#0f1623" stroke="#1e293b" stroke-width="1" filter="url(#shadow)"/>
  <rect x="40" y="60" width="440" height="40" rx="12" fill="#161f30"/>
  <rect x="40" y="88" width="440" height="12" fill="#161f30"/>
  <text x="180" y="85" font-family="Arial" font-size="13" font-weight="bold" fill="#94a3b8">Neural Network Architecture</text>

  <!-- Input nodes -->
  <circle cx="110" cy="180" r="18" fill="#0f2040" stroke="#3b82f6" stroke-width="2"/>
  <text x="110" y="185" font-family="monospace" font-size="9" fill="#60a5fa" text-anchor="middle">x1</text>
  <circle cx="110" cy="260" r="18" fill="#0f2040" stroke="#3b82f6" stroke-width="2"/>
  <text x="110" y="265" font-family="monospace" font-size="9" fill="#60a5fa" text-anchor="middle">x2</text>
  <circle cx="110" cy="340" r="18" fill="#0f2040" stroke="#3b82f6" stroke-width="2"/>
  <text x="110" y="345" font-family="monospace" font-size="9" fill="#60a5fa" text-anchor="middle">x3</text>
  <circle cx="110" cy="420" r="18" fill="#0f2040" stroke="#3b82f6" stroke-width="2"/>
  <text x="110" y="425" font-family="monospace" font-size="9" fill="#60a5fa" text-anchor="middle">x4</text>
  <circle cx="110" cy="500" r="18" fill="#0f2040" stroke="#3b82f6" stroke-width="2"/>
  <text x="110" y="505" font-family="monospace" font-size="9" fill="#60a5fa" text-anchor="middle">x5</text>
  <text x="110" y="545" font-family="Arial" font-size="10" fill="#4a5568" text-anchor="middle">Input</text>

  <!-- Hidden layer 1 -->
  <circle cx="230" cy="200" r="18" fill="#0f1a30" stroke="#6366f1" stroke-width="2"/>
  <circle cx="230" cy="280" r="18" fill="#0f1a30" stroke="#6366f1" stroke-width="2"/>
  <circle cx="230" cy="360" r="18" fill="#0f1a30" stroke="#6366f1" stroke-width="2"/>
  <circle cx="230" cy="440" r="18" fill="#0f1a30" stroke="#6366f1" stroke-width="2"/>
  <circle cx="230" cy="520" r="18" fill="#0f1a30" stroke="#6366f1" stroke-width="2"/>
  <text x="230" y="560" font-family="Arial" font-size="10" fill="#4a5568" text-anchor="middle">Hidden 1</text>

  <!-- Hidden layer 2 -->
  <circle cx="350" cy="220" r="18" fill="#0f1428" stroke="#8b5cf6" stroke-width="2"/>
  <circle cx="350" cy="310" r="18" fill="#0f1428" stroke="#8b5cf6" stroke-width="2"/>
  <circle cx="350" cy="400" r="18" fill="#0f1428" stroke="#8b5cf6" stroke-width="2"/>
  <circle cx="350" cy="490" r="18" fill="#0f1428" stroke="#8b5cf6" stroke-width="2"/>
  <text x="350" y="540" font-family="Arial" font-size="10" fill="#4a5568" text-anchor="middle">Hidden 2</text>

  <!-- Output -->
  <circle cx="440" cy="300" r="20" fill="#0f2030" stroke="#06b6d4" stroke-width="2.5"/>
  <text x="440" y="305" font-family="monospace" font-size="8" fill="#22d3ee" text-anchor="middle">ŷ</text>
  <circle cx="440" cy="400" r="20" fill="#0f2030" stroke="#06b6d4" stroke-width="2.5"/>
  <text x="440" y="405" font-family="monospace" font-size="8" fill="#22d3ee" text-anchor="middle">ŷ</text>
  <text x="455" y="455" font-family="Arial" font-size="10" fill="#4a5568">Output</text>

  <!-- Connections - faint -->
  <g opacity="0.18" stroke="#6366f1" stroke-width="1">
    <line x1="128" y1="180" x2="212" y2="200"/><line x1="128" y1="180" x2="212" y2="280"/>
    <line x1="128" y1="260" x2="212" y2="200"/><line x1="128" y1="260" x2="212" y2="360"/>
    <line x1="128" y1="340" x2="212" y2="280"/><line x1="128" y1="340" x2="212" y2="360"/>
    <line x1="128" y1="420" x2="212" y2="360"/><line x1="128" y1="420" x2="212" y2="440"/>
    <line x1="128" y1="500" x2="212" y2="440"/><line x1="128" y1="500" x2="212" y2="520"/>
    <line x1="248" y1="200" x2="332" y2="220"/><line x1="248" y1="200" x2="332" y2="310"/>
    <line x1="248" y1="280" x2="332" y2="220"/><line x1="248" y1="280" x2="332" y2="310"/>
    <line x1="248" y1="360" x2="332" y2="310"/><line x1="248" y1="360" x2="332" y2="400"/>
    <line x1="248" y1="440" x2="332" y2="400"/><line x1="248" y1="440" x2="332" y2="490"/>
    <line x1="248" y1="520" x2="332" y2="490"/>
    <line x1="368" y1="220" x2="420" y2="300"/><line x1="368" y1="310" x2="420" y2="300"/>
    <line x1="368" y1="400" x2="420" y2="400"/><line x1="368" y1="490" x2="420" y2="400"/>
  </g>
  <!-- Active path -->
  <line x1="128" y1="340" x2="212" y2="360" stroke="#60a5fa" stroke-width="2" opacity="0.9"/>
  <line x1="248" y1="360" x2="332" y2="310" stroke="#818cf8" stroke-width="2" opacity="0.9"/>
  <line x1="368" y1="310" x2="420" y2="300" stroke="#22d3ee" stroke-width="2.5" opacity="0.9"/>

  <!-- Right: Performance charts -->
  <rect x="510" y="60" width="650" height="300" rx="12" fill="#0f1623" stroke="#1e293b" stroke-width="1" filter="url(#shadow)"/>
  <rect x="510" y="60" width="650" height="40" rx="12" fill="#161f30"/>
  <rect x="510" y="88" width="650" height="12" fill="#161f30"/>
  <text x="700" y="85" font-family="Arial" font-size="13" font-weight="bold" fill="#94a3b8">Model Training — Accuracy &amp; Loss</text>

  <!-- Accuracy chart area -->
  <rect x="530" y="115" width="280" height="220" rx="4" fill="#0a0e1a"/>
  <text x="670" y="108" font-family="Arial" font-size="10" fill="#6b7280" text-anchor="middle">Accuracy</text>
  <g stroke="#1e293b" stroke-width="0.5">
    <line x1="530" y1="150" x2="810" y2="150"/>
    <line x1="530" y1="185" x2="810" y2="185"/>
    <line x1="530" y1="220" x2="810" y2="220"/>
    <line x1="530" y1="255" x2="810" y2="255"/>
    <line x1="530" y1="290" x2="810" y2="290"/>
  </g>
  <polyline points="530,320 560,310 590,290 620,268 650,245 680,228 710,215 740,205 770,199 800,196 810,195" fill="none" stroke="#10b981" stroke-width="2.5"/>
  <polygon points="530,335 530,320 560,310 590,290 620,268 650,245 680,228 710,215 740,205 770,199 800,196 810,195 810,335" fill="#10b981" opacity="0.1"/>
  <text x="535" y="148" font-family="monospace" font-size="9" fill="#4a5568">100%</text>
  <text x="535" y="333" font-family="monospace" font-size="9" fill="#4a5568">0%</text>
  <text x="800" y="193" font-family="monospace" font-size="10" fill="#10b981">97.4%</text>

  <!-- Loss chart area -->
  <rect x="830" y="115" width="310" height="220" rx="4" fill="#0a0e1a"/>
  <text x="985" y="108" font-family="Arial" font-size="10" fill="#6b7280" text-anchor="middle">Loss</text>
  <g stroke="#1e293b" stroke-width="0.5">
    <line x1="830" y1="150" x2="1140" y2="150"/>
    <line x1="830" y1="185" x2="1140" y2="185"/>
    <line x1="830" y1="220" x2="1140" y2="220"/>
    <line x1="830" y1="255" x2="1140" y2="255"/>
    <line x1="830" y1="290" x2="1140" y2="290"/>
  </g>
  <polyline points="830,160 860,175 900,198 940,218 980,238 1020,252 1060,260 1100,265 1140,268" fill="none" stroke="#f59e0b" stroke-width="2.5"/>
  <polygon points="830,335 830,160 860,175 900,198 940,218 980,238 1020,252 1060,260 1100,265 1140,268 1140,335" fill="#f59e0b" opacity="0.1"/>
  <text x="1110" y="267" font-family="monospace" font-size="10" fill="#f59e0b">0.043</text>

  <!-- Bottom panels -->
  <rect x="510" y="380" width="310" height="310" rx="12" fill="#0f1623" stroke="#1e293b" stroke-width="1" filter="url(#shadow)"/>
  <rect x="510" y="380" width="310" height="40" rx="12" fill="#161f30"/>
  <rect x="510" y="408" width="310" height="12" fill="#161f30"/>
  <text x="665" y="405" font-family="Arial" font-size="12" font-weight="bold" fill="#94a3b8" text-anchor="middle">Metrics</text>

  <rect x="530" y="430" width="130" height="70" rx="8" fill="#0a1628" stroke="#1e3a5f" stroke-width="1"/>
  <text x="595" y="452" font-family="Arial" font-size="10" fill="#6b7280" text-anchor="middle">Precision</text>
  <text x="595" y="478" font-family="monospace" font-size="22" font-weight="bold" fill="#60a5fa" text-anchor="middle">96.8%</text>

  <rect x="670" y="430" width="130" height="70" rx="8" fill="#0a1628" stroke="#1e3a5f" stroke-width="1"/>
  <text x="735" y="452" font-family="Arial" font-size="10" fill="#6b7280" text-anchor="middle">Recall</text>
  <text x="735" y="478" font-family="monospace" font-size="22" font-weight="bold" fill="#818cf8" text-anchor="middle">97.1%</text>

  <rect x="530" y="515" width="130" height="70" rx="8" fill="#0a1628" stroke="#1e3a5f" stroke-width="1"/>
  <text x="595" y="537" font-family="Arial" font-size="10" fill="#6b7280" text-anchor="middle">F1-Score</text>
  <text x="595" y="563" font-family="monospace" font-size="22" font-weight="bold" fill="#22d3ee" text-anchor="middle">96.9%</text>

  <rect x="670" y="515" width="130" height="70" rx="8" fill="#0a1628" stroke="#1e3a5f" stroke-width="1"/>
  <text x="735" y="537" font-family="Arial" font-size="10" fill="#6b7280" text-anchor="middle">AUC-ROC</text>
  <text x="735" y="563" font-family="monospace" font-size="22" font-weight="bold" fill="#10b981" text-anchor="middle">0.994</text>

  <rect x="530" y="600" width="270" height="60" rx="6" fill="#0a0e1a" stroke="#1e293b" stroke-width="1"/>
  <text x="540" y="622" font-family="monospace" font-size="10" fill="#10b981">● Training complete</text>
  <text x="540" y="640" font-family="monospace" font-size="10" fill="#6b7280">PyTorch 2.1 · ResNet-50 · GPU: RTX 4090</text>
  <text x="540" y="656" font-family="monospace" font-size="10" fill="#6b7280">Epochs: 120 · Dataset: 48K · Time: 2h 14m</text>

  <!-- Right bottom: Confusion matrix -->
  <rect x="840" y="380" width="320" height="310" rx="12" fill="#0f1623" stroke="#1e293b" stroke-width="1" filter="url(#shadow)"/>
  <rect x="840" y="380" width="320" height="40" rx="12" fill="#161f30"/>
  <rect x="840" y="408" width="320" height="12" fill="#161f30"/>
  <text x="1000" y="405" font-family="Arial" font-size="12" font-weight="bold" fill="#94a3b8" text-anchor="middle">Confusion Matrix</text>

  <rect x="870" y="440" width="70" height="55" rx="3" fill="#14532d"/>
  <text x="905" y="471" font-family="monospace" font-size="14" fill="#4ade80" text-anchor="middle">842</text>
  <rect x="946" y="440" width="70" height="55" rx="3" fill="#1c1917"/>
  <text x="981" y="471" font-family="monospace" font-size="14" fill="#6b7280" text-anchor="middle">12</text>
  <rect x="1022" y="440" width="70" height="55" rx="3" fill="#1c1917"/>
  <text x="1057" y="471" font-family="monospace" font-size="14" fill="#6b7280" text-anchor="middle">8</text>
  <rect x="1098" y="440" width="50" height="55" rx="3" fill="#14532d"/>
  <text x="1123" y="471" font-family="monospace" font-size="14" fill="#4ade80" text-anchor="middle">738</text>

  <text x="870" y="520" font-family="monospace" font-size="10" fill="#6b7280">Model: LLM Fine-tuned BERT</text>
  <text x="870" y="538" font-family="monospace" font-size="10" fill="#6b7280">Task: Multi-class Classification</text>
  <text x="870" y="556" font-family="monospace" font-size="10" fill="#6b7280">Classes: 4 · Samples: 12,000</text>
  <text x="870" y="580" font-family="monospace" font-size="11" fill="#10b981">✓ IEEE Publishable Quality</text>
  <text x="870" y="598" font-family="monospace" font-size="11" fill="#60a5fa">✓ Deployed via REST API</text>
  <text x="870" y="616" font-family="monospace" font-size="11" fill="#818cf8">✓ Edge AI Ready (TFLite)</text>
  <text x="870" y="640" font-family="monospace" font-size="10" fill="#4a5568">Framework: PyTorch · Inference: 12ms</text>
  <text x="870" y="658" font-family="monospace" font-size="10" fill="#4a5568">Params: 110M · Size: 440MB</text>
</svg>
