<svg xmlns="http://www.w3.org/2000/svg" viewBox="0 0 1200 750" width="1200" height="750">
  <defs>
    <linearGradient id="deskbg" x1="0" y1="0" x2="0" y2="1">
      <stop offset="0%" stop-color="#1a1a2e"/>
      <stop offset="100%" stop-color="#16213e"/>
    </linearGradient>
    <linearGradient id="screenbg" x1="0" y1="0" x2="0" y2="1">
      <stop offset="0%" stop-color="#0f1117"/>
      <stop offset="100%" stop-color="#1e2235"/>
    </linearGradient>
    <filter id="dropshadow">
      <feDropShadow dx="0" dy="8" stdDeviation="16" flood-color="#000" flood-opacity="0.5"/>
    </filter>
  </defs>

  <!-- Background - dark desk -->
  <rect width="1200" height="750" fill="url(#deskbg)"/>
  <rect x="0" y="580" width="1200" height="170" fill="#111122" opacity="0.5"/>

  <!-- Monitor stand -->
  <rect x="540" y="590" width="120" height="70" rx="4" fill="#1a1a2e"/>
  <rect x="460" y="655" width="280" height="18" rx="9" fill="#111122"/>

  <!-- Monitor body -->
  <rect x="160" y="60" width="880" height="540" rx="14" fill="#1c1c2e" filter="url(#dropshadow)"/>
  <rect x="174" y="74" width="852" height="512" rx="8" fill="#111122"/>
  <!-- Screen -->
  <rect x="186" y="86" width="828" height="488" rx="4" fill="url(#screenbg)"/>

  <!-- Top bar -->
  <rect x="186" y="86" width="828" height="34" rx="4" fill="#12141f"/>
  <circle cx="210" cy="103" r="6" fill="#ff5f57"/>
  <circle cx="230" cy="103" r="6" fill="#febc2e"/>
  <circle cx="250" cy="103" r="6" fill="#28c840"/>
  <!-- Tabs -->
  <rect x="274" y="91" width="140" height="26" rx="4" fill="#1e2235"/>
  <text x="284" y="108" font-family="monospace" font-size="11" fill="#a0aec0">● App.tsx</text>
  <rect x="420" y="91" width="120" height="26" rx="4" fill="#12141f"/>
  <text x="430" y="108" font-family="monospace" font-size="11" fill="#4a5568">api.ts</text>
  <rect x="546" y="91" width="130" height="26" rx="4" fill="#12141f"/>
  <text x="556" y="108" font-family="monospace" font-size="11" fill="#4a5568">styles.css</text>

  <!-- Sidebar -->
  <rect x="186" y="120" width="190" height="454" fill="#0d0f1a"/>
  <text x="204" y="144" font-family="monospace" font-size="10" fill="#6b7280">EXPLORER</text>
  <text x="204" y="164" font-family="monospace" font-size="11" fill="#9ca3af">▾ src</text>
  <text x="216" y="182" font-family="monospace" font-size="11" fill="#d4a574">  App.tsx</text>
  <text x="216" y="200" font-family="monospace" font-size="11" fill="#6b7280">  index.tsx</text>
  <text x="216" y="218" font-family="monospace" font-size="11" fill="#6b7280">  api.ts</text>
  <text x="204" y="238" font-family="monospace" font-size="11" fill="#9ca3af">▾ components</text>
  <text x="216" y="256" font-family="monospace" font-size="11" fill="#6b7280">  Header.tsx</text>
  <text x="216" y="274" font-family="monospace" font-size="11" fill="#6b7280">  Footer.tsx</text>
  <text x="216" y="292" font-family="monospace" font-size="11" fill="#6b7280">  Card.tsx</text>
  <text x="204" y="312" font-family="monospace" font-size="11" fill="#9ca3af">▾ lib</text>
  <text x="216" y="330" font-family="monospace" font-size="11" fill="#6b7280">  utils.ts</text>
  <text x="216" y="348" font-family="monospace" font-size="11" fill="#6b7280">  hooks.ts</text>
  <text x="204" y="368" font-family="monospace" font-size="11" fill="#9ca3af">package.json</text>
  <text x="204" y="386" font-family="monospace" font-size="11" fill="#9ca3af">next.config.js</text>

  <!-- Code area -->
  <rect x="376" y="120" width="638" height="454" fill="#0f1117"/>
  <!-- Line numbers gutter -->
  <rect x="376" y="120" width="40" height="454" fill="#0d0f1a"/>

  <!-- Code lines -->
  <text x="382" y="144" font-family="monospace" font-size="10" fill="#4a5568">1</text>
  <text x="424" y="144" font-family="monospace" font-size="12" fill="#c792ea">import </text>
  <text x="478" y="144" font-family="monospace" font-size="12" fill="#e0e0e0">React </text>
  <text x="524" y="144" font-family="monospace" font-size="12" fill="#c792ea">from </text>
  <text x="560" y="144" font-family="monospace" font-size="12" fill="#c3e88d">'react'</text>

  <text x="382" y="164" font-family="monospace" font-size="10" fill="#4a5568">2</text>
  <text x="424" y="164" font-family="monospace" font-size="12" fill="#c792ea">import </text>
  <text x="478" y="164" font-family="monospace" font-size="12" fill="#e0e0e0">{ </text>
  <text x="494" y="164" font-family="monospace" font-size="12" fill="#82aaff">useState, useEffect </text>
  <text x="668" y="164" font-family="monospace" font-size="12" fill="#e0e0e0">} </text>
  <text x="684" y="164" font-family="monospace" font-size="12" fill="#c792ea">from </text>
  <text x="720" y="164" font-family="monospace" font-size="12" fill="#c3e88d">'react'</text>

  <text x="382" y="184" font-family="monospace" font-size="10" fill="#4a5568">3</text>
  <text x="382" y="204" font-family="monospace" font-size="10" fill="#4a5568">4</text>
  <text x="424" y="204" font-family="monospace" font-size="12" fill="#c792ea">interface </text>
  <text x="500" y="204" font-family="monospace" font-size="12" fill="#ffcb6b">Project </text>
  <text x="556" y="204" font-family="monospace" font-size="12" fill="#e0e0e0">{</text>
  <text x="382" y="224" font-family="monospace" font-size="10" fill="#4a5568">5</text>
  <text x="424" y="224" font-family="monospace" font-size="12" fill="#e0e0e0">  id: </text>
  <text x="460" y="224" font-family="monospace" font-size="12" fill="#82aaff">string</text>
  <text x="382" y="244" font-family="monospace" font-size="10" fill="#4a5568">6</text>
  <text x="424" y="244" font-family="monospace" font-size="12" fill="#e0e0e0">  title: </text>
  <text x="472" y="244" font-family="monospace" font-size="12" fill="#82aaff">string</text>
  <text x="382" y="264" font-family="monospace" font-size="10" fill="#4a5568">7</text>
  <text x="424" y="264" font-family="monospace" font-size="12" fill="#e0e0e0">  status: </text>
  <text x="480" y="264" font-family="monospace" font-size="12" fill="#c3e88d">'active'</text>
  <text x="540" y="264" font-family="monospace" font-size="12" fill="#e0e0e0"> | </text>
  <text x="556" y="264" font-family="monospace" font-size="12" fill="#c3e88d">'done'</text>
  <text x="382" y="284" font-family="monospace" font-size="10" fill="#4a5568">8</text>
  <text x="424" y="284" font-family="monospace" font-size="12" fill="#e0e0e0">}</text>

  <text x="382" y="304" font-family="monospace" font-size="10" fill="#4a5568">9</text>
  <!-- Highlighted active line -->
  <rect x="416" y="312" width="590" height="18" fill="#1e2235" rx="2"/>
  <text x="382" y="326" font-family="monospace" font-size="10" fill="#4a5568">10</text>
  <text x="424" y="326" font-family="monospace" font-size="12" fill="#c792ea">export default function </text>
  <text x="616" y="326" font-family="monospace" font-size="12" fill="#82aaff">Dashboard</text>
  <text x="680" y="326" font-family="monospace" font-size="12" fill="#e0e0e0">() {</text>

  <text x="382" y="346" font-family="monospace" font-size="10" fill="#4a5568">11</text>
  <text x="424" y="346" font-family="monospace" font-size="12" fill="#c792ea">  const </text>
  <text x="472" y="346" font-family="monospace" font-size="12" fill="#e0e0e0">[projects, setProjects] = </text>
  <text x="640" y="346" font-family="monospace" font-size="12" fill="#82aaff">useState</text>
  <text x="696" y="346" font-family="monospace" font-size="12" fill="#e0e0e0">&lt;</text>
  <text x="706" y="346" font-family="monospace" font-size="12" fill="#ffcb6b">Project</text>
  <text x="750" y="346" font-family="monospace" font-size="12" fill="#e0e0e0">[]&gt;([])</text>

  <text x="382" y="366" font-family="monospace" font-size="10" fill="#4a5568">12</text>
  <text x="382" y="386" font-family="monospace" font-size="10" fill="#4a5568">13</text>
  <text x="424" y="386" font-family="monospace" font-size="12" fill="#82aaff">  useEffect</text>
  <text x="502" y="386" font-family="monospace" font-size="12" fill="#e0e0e0">(() =&gt; {</text>

  <text x="382" y="406" font-family="monospace" font-size="10" fill="#4a5568">14</text>
  <text x="424" y="406" font-family="monospace" font-size="12" fill="#c792ea">    fetch</text>
  <text x="466" y="406" font-family="monospace" font-size="12" fill="#e0e0e0">(</text>
  <text x="472" y="406" font-family="monospace" font-size="12" fill="#c3e88d">'/api/projects'</text>
  <text x="588" y="406" font-family="monospace" font-size="12" fill="#e0e0e0">)</text>

  <text x="382" y="426" font-family="monospace" font-size="10" fill="#4a5568">15</text>
  <text x="424" y="426" font-family="monospace" font-size="12" fill="#e0e0e0">      .then(res =&gt; res.</text>
  <text x="574" y="426" font-family="monospace" font-size="12" fill="#82aaff">json</text>
  <text x="602" y="426" font-family="monospace" font-size="12" fill="#e0e0e0">())</text>

  <text x="382" y="446" font-family="monospace" font-size="10" fill="#4a5568">16</text>
  <text x="424" y="446" font-family="monospace" font-size="12" fill="#e0e0e0">      .then(</text>
  <text x="480" y="446" font-family="monospace" font-size="12" fill="#82aaff">setProjects</text>
  <text x="564" y="446" font-family="monospace" font-size="12" fill="#e0e0e0">)</text>

  <text x="382" y="466" font-family="monospace" font-size="10" fill="#4a5568">17</text>
  <text x="424" y="466" font-family="monospace" font-size="12" fill="#e0e0e0">  }, [])</text>

  <text x="382" y="486" font-family="monospace" font-size="10" fill="#4a5568">18</text>
  <text x="382" y="506" font-family="monospace" font-size="10" fill="#4a5568">19</text>
  <text x="424" y="506" font-family="monospace" font-size="12" fill="#c792ea">  return </text>
  <text x="480" y="506" font-family="monospace" font-size="12" fill="#89ddff">&lt;</text>
  <text x="488" y="506" font-family="monospace" font-size="12" fill="#f07178">main</text>
  <text x="520" y="506" font-family="monospace" font-size="12" fill="#c792ea"> className</text>
  <text x="594" y="506" font-family="monospace" font-size="12" fill="#e0e0e0">=</text>
  <text x="602" y="506" font-family="monospace" font-size="12" fill="#c3e88d">"dashboard"</text>
  <text x="686" y="506" font-family="monospace" font-size="12" fill="#89ddff">&gt;</text>

  <text x="382" y="526" font-family="monospace" font-size="10" fill="#4a5568">20</text>
  <text x="424" y="526" font-family="monospace" font-size="12" fill="#e0e0e0">    {projects.map(p =&gt; </text>
  <text x="580" y="526" font-family="monospace" font-size="12" fill="#89ddff">&lt;</text>
  <text x="588" y="526" font-family="monospace" font-size="12" fill="#f07178">ProjectCard </text>
  <text x="660" y="526" font-family="monospace" font-size="12" fill="#c792ea">key</text>
  <text x="690" y="526" font-family="monospace" font-size="12" fill="#e0e0e0">={p.id} </text>
  <text x="730" y="526" font-family="monospace" font-size="12" fill="#89ddff">/&gt;</text>
  <text x="750" y="526" font-family="monospace" font-size="12" fill="#e0e0e0">)}</text>

  <!-- Status bar -->
  <rect x="186" y="552" width="828" height="22" fill="#0a0c14"/>
  <text x="200" y="567" font-family="monospace" font-size="10" fill="#4a9eff">⎇ main</text>
  <text x="260" y="567" font-family="monospace" font-size="10" fill="#28c840">✓ TypeScript</text>
  <text x="360" y="567" font-family="monospace" font-size="10" fill="#6b7280">Ln 10, Col 32</text>
  <text x="860" y="567" font-family="monospace" font-size="10" fill="#28c840">● Next.js 14</text>
  <text x="960" y="567" font-family="monospace" font-size="10" fill="#28c840">Port 3000</text>

  <!-- Terminal panel bottom -->
  <rect x="186" y="574" width="828" height="60" fill="#0d1117"/>
  <text x="200" y="592" font-family="monospace" font-size="10" fill="#6b7280">TERMINAL</text>
  <text x="200" y="610" font-family="monospace" font-size="11" fill="#3fb950">$ npm run dev</text>
  <text x="200" y="626" font-family="monospace" font-size="11" fill="#58a6ff">  ▶ Ready on http://localhost:3000</text>
</svg>
